#include "pitches.h"

const int flagpole[] = {
  27,                                               // Array for Flag pole sound effect & song
  NOTE_G2, 10, NOTE_C3, 10, NOTE_E3, 10, NOTE_G3, 10, NOTE_C4, 10, NOTE_E4, 10, NOTE_G4, 3, NOTE_E4, 3, NOTE_GS2, 10, NOTE_C3, 10, 
  NOTE_DS3, 10, NOTE_GS3, 10, NOTE_C4, 10, NOTE_DS4, 10, NOTE_GS4, 3, NOTE_DS4, 3, NOTE_AS2, 10, NOTE_D3, 10, NOTE_F3, 10, 
  NOTE_AS3, 10, NOTE_D4, 10, NOTE_F4, 10, NOTE_AS4, 3, NOTE_B4, 10, NOTE_B4, 10, NOTE_B4, 10, NOTE_C5, 2};

const int death[] = {
  17,                                                  // Array for Death sound effect & song
  NOTE_C4, 32, NOTE_CS4, 32, NOTE_D4, 16, NOTE_H, 4, NOTE_H, 2, NOTE_B3, 8, NOTE_F4, 8, NOTE_H, 8, NOTE_F4, 8, NOTE_F4, 6, 
  NOTE_E4, 6, NOTE_D4, 6, NOTE_C4, 8, NOTE_E3, 8, NOTE_H, 8, NOTE_E3, 8, NOTE_C3, 8};

const int gameover[] = {
  15,                                               // Array for Game over song
  NOTE_C4, 8, NOTE_H, 8, NOTE_H, 8, NOTE_G3, 8, NOTE_H, 4, NOTE_E3, 4, NOTE_A3, 6, NOTE_B3, 6, NOTE_A3, 6, NOTE_GS3, 6, NOTE_AS3, 6, 
  NOTE_GS3, 6, NOTE_G3, 8, NOTE_F3, 8, NOTE_G3, 4};

const int theme[] = {
  11,                                                  // Array for Theme song
  NOTE_E4, 8, NOTE_E4, 8, NOTE_H, 8, NOTE_E4, 8, NOTE_H, 8, NOTE_C4, 8, NOTE_E4, 8, NOTE_H, 8, NOTE_G4, 8, NOTE_H, 3, NOTE_G3, 8};

